<svg width="36" height="43" viewBox="0 0 36 43" fill="none" xmlns="http://www.w3.org/2000/svg">
<path d="M17.9999 8.27487C16.9561 8.27487 16.0263 7.78683 15.4305 7.02872C15.0021 6.48331 14.7465 5.7967 14.7465 5.05095C14.7465 3.26998 16.2035 1.82703 17.9999 1.82703C19.7971 1.82703 21.2532 3.26998 21.2532 5.05095C21.2532 5.79934 20.9959 6.48773 20.5639 7.0349C19.969 7.78947 19.0419 8.27487 17.9999 8.27487ZM17.9999 8.27487C18.9628 8.27487 19.7217 7.91643 20.3761 7.27352C25.2492 8.36476 28.873 12.7395 28.873 17.8997V25.5163C28.873 27.9117 29.9511 30.1814 31.8112 31.7115C31.989 31.8574 32.1593 32.0116 32.3223 32.1731C33.6679 33.5065 34.5 34.8596 34.5 36.8944H1.5C1.5 34.5937 2.56417 33.0286 4.23162 31.6772C6.08754 30.1725 7.12702 27.8921 7.12702 25.5155V17.7863C7.12702 14.8111 8.34428 12.1172 10.3113 10.168C11.7458 8.74645 13.5804 7.71964 15.6322 7.26781C16.2022 7.87563 17.0353 8.27487 17.9999 8.27487ZM29.6994 29.0504H6.31395M13.4338 37.3022C13.4338 39.8011 15.4782 41.827 17.9999 41.827C20.5217 41.827 22.5661 39.8011 22.5661 37.3022C22.5661 37.1644 22.5595 37.029 22.5471 36.8944H13.4527C13.4404 37.029 13.4338 37.1644 13.4338 37.3022Z" stroke="#67412E" stroke-width="2" stroke-miterlimit="10"/>
</svg>
