<svg width="28" height="35" viewBox="0 0 28 35" fill="none" xmlns="http://www.w3.org/2000/svg">
<path d="M14.0001 6.8199C14.8351 6.8199 15.579 6.42946 16.0556 5.82298C16.3983 5.38665 16.6028 4.83736 16.6028 4.24076C16.6028 2.81598 15.4372 1.66162 14.0001 1.66162C12.5623 1.66162 11.3974 2.81598 11.3974 4.24076C11.3974 4.83948 11.6033 5.39018 11.9489 5.82792C12.4248 6.43158 13.1665 6.8199 14.0001 6.8199ZM14.0001 6.8199C13.2298 6.8199 12.6227 6.53315 12.0992 6.01882C8.20066 6.89181 5.30163 10.3916 5.30163 14.5197L5.30163 20.6131C5.30163 22.5293 4.4391 24.3451 2.95107 25.5692C2.80886 25.686 2.67256 25.8093 2.5422 25.9385C1.46568 27.0052 0.800018 28.0877 0.800018 29.7156H27.2C27.2 27.875 26.3487 26.6229 25.0147 25.5418C23.53 24.338 22.6984 22.5137 22.6984 20.6124V14.429C22.6984 12.0489 21.7246 9.89378 20.151 8.3344C19.0033 7.19716 17.5357 6.37571 15.8943 6.01425C15.4383 6.5005 14.7718 6.8199 14.0001 6.8199ZM4.64051 23.4403H23.3489M17.653 30.0418C17.653 32.0409 16.0175 33.6616 14.0001 33.6616C11.9827 33.6616 10.3472 32.0409 10.3472 30.0418C10.3472 29.9315 10.3524 29.8232 10.3623 29.7155H17.6378C17.6477 29.8232 17.653 29.9315 17.653 30.0418Z" stroke="#636156" stroke-width="1.6" stroke-miterlimit="10"/>
</svg>
