<svg width="140" height="121" viewBox="0 0 140 121" fill="none" xmlns="http://www.w3.org/2000/svg">
<path d="M79.1044 61.5048C77.4337 61.4575 75.7705 61.7456 74.2131 62.3522C72.6557 62.9589 71.2358 63.8717 70.0373 65.0366C68.8388 66.2016 67.8862 67.5951 67.2356 69.1347C66.5851 70.6742 66.25 72.3286 66.25 74L47.5 54C49.1755 53.9983 50.8335 53.6597 52.3755 53.0045C53.9176 52.3493 55.3122 51.3907 56.4764 50.1858C57.6406 48.9809 58.5507 47.5542 59.1526 45.9906C59.7545 44.427 60.036 42.7583 59.9802 41.0838C59.9244 39.4092 59.5325 37.763 58.8279 36.2429C58.1232 34.7228 57.1202 33.3599 55.8783 32.2351C54.6365 31.1104 53.1812 30.2468 51.599 29.6957C50.0167 29.1445 48.3398 28.9171 46.668 29.0269C40.0241 29.4572 35 35.2703 35 41.9281V43.8003C35 55.125 39.4988 65.9858 47.5065 73.9935C55.5142 82.0012 66.375 86.5 77.6997 86.5H78.75C80.4214 86.5 82.0758 86.1649 83.6153 85.5143C85.1549 84.8638 86.5484 83.9112 87.7134 82.7127C88.8783 81.5142 89.7911 80.0943 90.3978 78.5369C91.0044 76.9795 91.2925 75.3163 91.2452 73.6456C91.0647 67.1228 85.627 61.6853 79.1044 61.5048Z" fill="#F6F4F0"/>
<path d="M86.25 11.5C81.7672 11.5005 77.4329 13.1069 74.0325 16.028C70.6321 18.9491 68.3906 22.9917 67.7143 27.4232C67.0379 31.8547 67.9714 36.3819 70.3456 40.1843C72.7199 43.9868 76.3777 46.8129 80.6563 48.1506L80 52.75L86.0187 48.9883C86.0969 48.9892 86.1719 49 86.25 49C91.2228 49 95.9919 47.0246 99.5083 43.5083C103.025 39.9919 105 35.2228 105 30.25C105 25.2772 103.025 20.5081 99.5083 16.9917C95.9919 13.4754 91.2228 11.5 86.25 11.5ZM87.5 42.75C87.5 43.0815 87.3683 43.3995 87.1339 43.6339C86.8995 43.8683 86.5815 44 86.25 44C85.9185 44 85.6005 43.8683 85.3661 43.6339C85.1317 43.3995 85 43.0815 85 42.75V41.5C85 41.1685 85.1317 40.8505 85.3661 40.6161C85.6005 40.3817 85.9185 40.25 86.25 40.25C86.5815 40.25 86.8995 40.3817 87.1339 40.6161C87.3683 40.8505 87.5 41.1685 87.5 41.5V42.75ZM87.5 35.1609V37.75C87.5 38.0815 87.3683 38.3995 87.1339 38.6339C86.8995 38.8683 86.5815 39 86.25 39C85.9185 39 85.6005 38.8683 85.3661 38.6339C85.1317 38.3995 85 38.0815 85 37.75V34C85 33.6685 85.1317 33.3505 85.3661 33.1161C85.6005 32.8817 85.9185 32.75 86.25 32.75C87.4861 32.75 88.6945 32.3834 89.7223 31.6967C90.7501 31.0099 91.5512 30.0338 92.0242 28.8918C92.4973 27.7497 92.6211 26.4931 92.3799 25.2807C92.1388 24.0683 91.5435 22.9547 90.6694 22.0806C89.7953 21.2065 88.6817 20.6112 87.4693 20.3701C86.2569 20.1289 85.0003 20.2527 83.8582 20.7258C82.7162 21.1988 81.7401 21.9999 81.0533 23.0277C80.3666 24.0555 80 25.2639 80 26.5C80 26.8315 79.8683 27.1495 79.6339 27.3839C79.3995 27.6183 79.0815 27.75 78.75 27.75C78.4185 27.75 78.1005 27.6183 77.8661 27.3839C77.6317 27.1495 77.5 26.8315 77.5 26.5C77.5001 24.8228 77.9823 23.181 78.889 21.7701C79.7958 20.3591 81.0889 19.2385 82.6145 18.5417C84.1401 17.8448 85.8337 17.6011 87.4939 17.8396C89.154 18.078 90.7107 18.7885 91.9785 19.8865C93.2463 20.9846 94.1718 22.4238 94.6448 24.0329C95.1178 25.642 95.1184 27.3531 94.6465 28.9626C94.1746 30.572 93.2501 32.0119 91.9831 33.1108C90.7161 34.2097 89.16 34.9213 87.5 35.1609Z" fill="#F6F4F0"/>
<path d="M30.3281 102.008C29.7812 102.008 29.2917 102.107 28.8594 102.305C28.4323 102.503 28.0703 102.789 27.7734 103.164C27.4766 103.534 27.25 103.984 27.0938 104.516C26.9375 105.042 26.8594 105.635 26.8594 106.297C26.8594 107.182 26.9844 107.945 27.2344 108.586C27.4844 109.221 27.8646 109.711 28.375 110.055C28.8854 110.393 29.5312 110.562 30.3125 110.562C30.7969 110.562 31.2682 110.516 31.7266 110.422C32.1849 110.328 32.6589 110.201 33.1484 110.039V111.633C32.6849 111.815 32.2161 111.948 31.7422 112.031C31.2682 112.115 30.7214 112.156 30.1016 112.156C28.9349 112.156 27.9661 111.914 27.1953 111.43C26.4297 110.945 25.8568 110.263 25.4766 109.383C25.1016 108.503 24.9141 107.471 24.9141 106.289C24.9141 105.424 25.0339 104.633 25.2734 103.914C25.513 103.195 25.862 102.576 26.3203 102.055C26.7786 101.529 27.3438 101.125 28.0156 100.844C28.6927 100.557 29.4661 100.414 30.3359 100.414C30.9089 100.414 31.4714 100.479 32.0234 100.609C32.5807 100.734 33.0964 100.914 33.5703 101.148L32.9141 102.695C32.5182 102.508 32.1042 102.346 31.6719 102.211C31.2396 102.076 30.7917 102.008 30.3281 102.008ZM48.7422 106.273C48.7422 107.154 48.6302 107.956 48.4062 108.68C48.1875 109.398 47.8568 110.018 47.4141 110.539C46.9714 111.055 46.4167 111.453 45.75 111.734C45.0833 112.016 44.3021 112.156 43.4062 112.156C42.4948 112.156 41.7031 112.016 41.0312 111.734C40.3646 111.453 39.8099 111.052 39.3672 110.531C38.9297 110.01 38.6016 109.388 38.3828 108.664C38.1641 107.94 38.0547 107.138 38.0547 106.258C38.0547 105.081 38.2474 104.055 38.6328 103.18C39.0234 102.299 39.6146 101.617 40.4062 101.133C41.2031 100.643 42.2083 100.398 43.4219 100.398C44.6094 100.398 45.5964 100.641 46.3828 101.125C47.1693 101.609 47.7578 102.292 48.1484 103.172C48.5443 104.047 48.7422 105.081 48.7422 106.273ZM40.0234 106.273C40.0234 107.154 40.1432 107.917 40.3828 108.562C40.6224 109.203 40.9896 109.698 41.4844 110.047C41.9844 110.391 42.625 110.562 43.4062 110.562C44.1927 110.562 44.8333 110.391 45.3281 110.047C45.8229 109.698 46.1875 109.203 46.4219 108.562C46.6562 107.917 46.7734 107.154 46.7734 106.273C46.7734 104.935 46.5052 103.888 45.9688 103.133C45.4375 102.372 44.5885 101.992 43.4219 101.992C42.6406 101.992 41.9974 102.164 41.4922 102.508C40.9922 102.852 40.6224 103.344 40.3828 103.984C40.1432 104.62 40.0234 105.383 40.0234 106.273ZM63.7266 112H61.4219L55.8281 102.883H55.7578C55.7786 103.19 55.7969 103.516 55.8125 103.859C55.8333 104.203 55.849 104.557 55.8594 104.922C55.875 105.286 55.888 105.656 55.8984 106.031V112H54.1953V100.578H56.4844L62.0703 109.633H62.125C62.1146 109.367 62.1016 109.062 62.0859 108.719C62.0703 108.375 62.0547 108.021 62.0391 107.656C62.0286 107.286 62.0208 106.93 62.0156 106.586V100.578H63.7266V112ZM73.6875 112H71.8047V102.172H68.4609V100.578H77.0234V102.172H73.6875V112ZM88.8516 112L87.7344 108.828H83.3672L82.25 112H80.2734L84.5234 100.531H86.6016L90.8438 112H88.8516ZM87.25 107.219L86.1641 104.094C86.1224 103.958 86.0625 103.768 85.9844 103.523C85.9062 103.273 85.8281 103.021 85.75 102.766C85.6719 102.505 85.6068 102.286 85.5547 102.109C85.5026 102.323 85.4375 102.562 85.3594 102.828C85.2865 103.089 85.2135 103.333 85.1406 103.562C85.0729 103.792 85.0208 103.969 84.9844 104.094L83.8906 107.219H87.25ZM100.219 102.008C99.6719 102.008 99.1823 102.107 98.75 102.305C98.3229 102.503 97.9609 102.789 97.6641 103.164C97.3672 103.534 97.1406 103.984 96.9844 104.516C96.8281 105.042 96.75 105.635 96.75 106.297C96.75 107.182 96.875 107.945 97.125 108.586C97.375 109.221 97.7552 109.711 98.2656 110.055C98.776 110.393 99.4219 110.562 100.203 110.562C100.688 110.562 101.159 110.516 101.617 110.422C102.076 110.328 102.549 110.201 103.039 110.039V111.633C102.576 111.815 102.107 111.948 101.633 112.031C101.159 112.115 100.612 112.156 99.9922 112.156C98.8255 112.156 97.8568 111.914 97.0859 111.43C96.3203 110.945 95.7474 110.263 95.3672 109.383C94.9922 108.503 94.8047 107.471 94.8047 106.289C94.8047 105.424 94.9245 104.633 95.1641 103.914C95.4036 103.195 95.7526 102.576 96.2109 102.055C96.6693 101.529 97.2344 101.125 97.9062 100.844C98.5833 100.557 99.3568 100.414 100.227 100.414C100.799 100.414 101.362 100.479 101.914 100.609C102.471 100.734 102.987 100.914 103.461 101.148L102.805 102.695C102.409 102.508 101.995 102.346 101.562 102.211C101.13 102.076 100.682 102.008 100.219 102.008ZM112.453 112H110.57V102.172H107.227V100.578H115.789V102.172H112.453V112Z" fill="#F6F4F0"/>
</svg>
