<svg width="112" height="97" viewBox="0 0 112 97" fill="none" xmlns="http://www.w3.org/2000/svg">
<g opacity="0.5">
<path d="M63.2835 49.2039C61.9469 49.166 60.6164 49.3965 59.3704 49.8818C58.1245 50.3671 56.9886 51.0973 56.0298 52.0293C55.0711 52.9613 54.3089 54.0761 53.7885 55.3077C53.2681 56.5394 53 57.8629 53 59.2L38 43.2C39.3404 43.1986 40.6668 42.9278 41.9004 42.4036C43.1341 41.8794 44.2497 41.1126 45.1811 40.1486C46.1125 39.1847 46.8406 38.0434 47.3221 36.7925C47.8036 35.5416 48.0288 34.2067 47.9841 32.867C47.9395 31.5274 47.626 30.2104 47.0623 28.9943C46.4986 27.7783 45.6961 26.6879 44.7027 25.7881C43.7092 24.8883 42.5449 24.1974 41.2792 23.7565C40.0134 23.3156 38.6719 23.1337 37.3344 23.2215C32.0193 23.5658 28 28.2163 28 33.5425V35.0403C28 44.1 31.599 52.7886 38.0052 59.1948C44.4114 65.601 53.1 69.2 62.1598 69.2H63C64.3371 69.2 65.6606 68.9319 66.8923 68.4115C68.1239 67.8911 69.2387 67.1289 70.1707 66.1702C71.1027 65.2114 71.8329 64.0755 72.3182 62.8296C72.8035 61.5836 73.034 60.2531 72.9961 58.9165C72.8517 53.6983 68.5016 49.3483 63.2835 49.2039Z" fill="#F6F4F0"/>
<path d="M69 9.20001C65.4137 9.20041 61.9463 10.4855 59.226 12.8224C56.5057 15.1593 54.7125 18.3934 54.1714 21.9386C53.6303 25.4838 54.3771 29.1055 56.2765 32.1475C58.1759 35.1894 61.1021 37.4504 64.525 38.5205L64 42.2L68.815 39.1906C68.8775 39.1914 68.9375 39.2 69 39.2C72.9782 39.2 76.7936 37.6197 79.6066 34.8066C82.4196 31.9936 84 28.1783 84 24.2C84 20.2218 82.4196 16.4065 79.6066 13.5934C76.7936 10.7804 72.9782 9.20001 69 9.20001ZM70 34.2C70 34.4652 69.8946 34.7196 69.7071 34.9071C69.5196 35.0947 69.2652 35.2 69 35.2C68.7348 35.2 68.4804 35.0947 68.2929 34.9071C68.1054 34.7196 68 34.4652 68 34.2V33.2C68 32.9348 68.1054 32.6804 68.2929 32.4929C68.4804 32.3054 68.7348 32.2 69 32.2C69.2652 32.2 69.5196 32.3054 69.7071 32.4929C69.8946 32.6804 70 32.9348 70 33.2V34.2ZM70 28.1288V30.2C70 30.4652 69.8946 30.7196 69.7071 30.9071C69.5196 31.0947 69.2652 31.2 69 31.2C68.7348 31.2 68.4804 31.0947 68.2929 30.9071C68.1054 30.7196 68 30.4652 68 30.2V27.2C68 26.9348 68.1054 26.6804 68.2929 26.4929C68.4804 26.3054 68.7348 26.2 69 26.2C69.9889 26.2 70.9556 25.9068 71.7779 25.3574C72.6001 24.808 73.241 24.0271 73.6194 23.1134C73.9978 22.1998 74.0969 21.1945 73.9039 20.2246C73.711 19.2547 73.2348 18.3637 72.5355 17.6645C71.8363 16.9652 70.9454 16.489 69.9755 16.2961C69.0055 16.1032 68.0002 16.2022 67.0866 16.5806C66.173 16.9591 65.3921 17.5999 64.8427 18.4222C64.2932 19.2444 64 20.2111 64 21.2C64 21.4652 63.8946 21.7196 63.7071 21.9071C63.5196 22.0947 63.2652 22.2 63 22.2C62.7348 22.2 62.4804 22.0947 62.2929 21.9071C62.1054 21.7196 62 21.4652 62 21.2C62.0001 19.8583 62.3858 18.5448 63.1112 17.4161C63.8366 16.2873 64.8711 15.3908 66.0916 14.8334C67.312 14.2759 68.667 14.0809 69.9951 14.2717C71.3232 14.4624 72.5686 15.0308 73.5828 15.9092C74.597 16.7877 75.3374 17.9391 75.7158 19.2263C76.0942 20.5136 76.0947 21.8825 75.7172 23.1701C75.3397 24.4576 74.6001 25.6095 73.5865 26.4887C72.5729 27.3678 71.328 27.9371 70 28.1288Z" fill="#F6F4F0"/>
<path d="M24.2625 81.8062C23.825 81.8062 23.4333 81.8854 23.0875 82.0437C22.7458 82.2021 22.4562 82.4312 22.2187 82.7312C21.9812 83.0271 21.8 83.3875 21.675 83.8125C21.55 84.2333 21.4875 84.7083 21.4875 85.2375C21.4875 85.9458 21.5875 86.5562 21.7875 87.0687C21.9875 87.5771 22.2917 87.9687 22.7 88.2437C23.1083 88.5146 23.625 88.65 24.25 88.65C24.6375 88.65 25.0146 88.6125 25.3812 88.5375C25.7479 88.4625 26.1271 88.3604 26.5187 88.2312V89.5062C26.1479 89.6521 25.7729 89.7583 25.3937 89.825C25.0146 89.8917 24.5771 89.925 24.0812 89.925C23.1479 89.925 22.3729 89.7312 21.7562 89.3437C21.1437 88.9562 20.6854 88.4104 20.3812 87.7062C20.0812 87.0021 19.9312 86.1771 19.9312 85.2312C19.9312 84.5396 20.0271 83.9062 20.2187 83.3312C20.4104 82.7562 20.6896 82.2604 21.0562 81.8437C21.4229 81.4229 21.875 81.1 22.4125 80.875C22.9542 80.6458 23.5729 80.5312 24.2687 80.5312C24.7271 80.5312 25.1771 80.5833 25.6187 80.6875C26.0646 80.7875 26.4771 80.9312 26.8562 81.1187L26.3312 82.3562C26.0146 82.2062 25.6833 82.0771 25.3375 81.9687C24.9917 81.8604 24.6333 81.8062 24.2625 81.8062ZM38.9937 85.2187C38.9937 85.9229 38.9042 86.5646 38.725 87.1437C38.55 87.7187 38.2854 88.2146 37.9312 88.6312C37.5771 89.0437 37.1333 89.3625 36.6 89.5875C36.0667 89.8125 35.4417 89.925 34.725 89.925C33.9958 89.925 33.3625 89.8125 32.825 89.5875C32.2917 89.3625 31.8479 89.0417 31.4937 88.625C31.1437 88.2083 30.8812 87.7104 30.7062 87.1312C30.5312 86.5521 30.4437 85.9104 30.4437 85.2062C30.4437 84.2646 30.5979 83.4437 30.9062 82.7437C31.2187 82.0396 31.6917 81.4937 32.325 81.1062C32.9625 80.7146 33.7667 80.5187 34.7375 80.5187C35.6875 80.5187 36.4771 80.7125 37.1062 81.1C37.7354 81.4875 38.2062 82.0333 38.5187 82.7375C38.8354 83.4375 38.9937 84.2646 38.9937 85.2187ZM32.0187 85.2187C32.0187 85.9229 32.1146 86.5333 32.3062 87.05C32.4979 87.5625 32.7917 87.9583 33.1875 88.2375C33.5875 88.5125 34.1 88.65 34.725 88.65C35.3542 88.65 35.8667 88.5125 36.2625 88.2375C36.6583 87.9583 36.95 87.5625 37.1375 87.05C37.325 86.5333 37.4187 85.9229 37.4187 85.2187C37.4187 84.1479 37.2042 83.3104 36.775 82.7062C36.35 82.0979 35.6708 81.7937 34.7375 81.7937C34.1125 81.7937 33.5979 81.9312 33.1937 82.2062C32.7937 82.4812 32.4979 82.875 32.3062 83.3875C32.1146 83.8958 32.0187 84.5062 32.0187 85.2187ZM50.9812 89.8H49.1375L44.6625 82.5062H44.6062C44.6229 82.7521 44.6375 83.0125 44.65 83.2875C44.6667 83.5625 44.6792 83.8458 44.6875 84.1375C44.7 84.4292 44.7104 84.725 44.7187 85.025V89.8H43.3562V80.6625H45.1875L49.6562 87.9062H49.7C49.6917 87.6937 49.6812 87.45 49.6687 87.175C49.6562 86.9 49.6437 86.6167 49.6312 86.325C49.6229 86.0292 49.6167 85.7437 49.6125 85.4687V80.6625H50.9812V89.8ZM58.95 89.8H57.4437V81.9375H54.7687V80.6625H61.6187V81.9375H58.95V89.8ZM71.0813 89.8L70.1875 87.2625H66.6938L65.8 89.8H64.2188L67.6188 80.625H69.2813L72.675 89.8H71.0813ZM69.8 85.975L68.9313 83.475C68.8979 83.3667 68.85 83.2146 68.7875 83.0187C68.725 82.8187 68.6625 82.6167 68.6 82.4125C68.5375 82.2042 68.4854 82.0292 68.4438 81.8875C68.4021 82.0583 68.35 82.25 68.2875 82.4625C68.2292 82.6708 68.1708 82.8667 68.1125 83.05C68.0583 83.2333 68.0167 83.375 67.9875 83.475L67.1125 85.975H69.8ZM80.175 81.8062C79.7375 81.8062 79.3458 81.8854 79 82.0437C78.6583 82.2021 78.3687 82.4312 78.1312 82.7312C77.8937 83.0271 77.7125 83.3875 77.5875 83.8125C77.4625 84.2333 77.4 84.7083 77.4 85.2375C77.4 85.9458 77.5 86.5562 77.7 87.0687C77.9 87.5771 78.2042 87.9687 78.6125 88.2437C79.0208 88.5146 79.5375 88.65 80.1625 88.65C80.55 88.65 80.9271 88.6125 81.2937 88.5375C81.6604 88.4625 82.0396 88.3604 82.4312 88.2312V89.5062C82.0604 89.6521 81.6854 89.7583 81.3062 89.825C80.9271 89.8917 80.4896 89.925 79.9937 89.925C79.0604 89.925 78.2854 89.7312 77.6687 89.3437C77.0562 88.9562 76.5979 88.4104 76.2937 87.7062C75.9937 87.0021 75.8437 86.1771 75.8437 85.2312C75.8437 84.5396 75.9396 83.9062 76.1312 83.3312C76.3229 82.7562 76.6021 82.2604 76.9687 81.8437C77.3354 81.4229 77.7875 81.1 78.325 80.875C78.8667 80.6458 79.4854 80.5312 80.1812 80.5312C80.6396 80.5312 81.0896 80.5833 81.5312 80.6875C81.9771 80.7875 82.3896 80.9312 82.7687 81.1187L82.2437 82.3562C81.9271 82.2062 81.5958 82.0771 81.25 81.9687C80.9042 81.8604 80.5458 81.8062 80.175 81.8062ZM89.9625 89.8H88.4563V81.9375H85.7813V80.6625H92.6313V81.9375H89.9625V89.8Z" fill="#F6F4F0"/>
</g>
</svg>
