<svg width="140" height="121" viewBox="0 0 140 121" fill="none" xmlns="http://www.w3.org/2000/svg">
<path d="M51.2642 41.3438H53.7642V47.5938H51.2642V41.3438Z" fill="#F6F4F0"/>
<path d="M46.2642 32.5938H48.7642V47.5938H46.2642V32.5938Z" fill="#F6F4F0"/>
<path d="M41.2642 32.5938H43.7642V38.8438H41.2642V32.5938Z" fill="#F6F4F0"/>
<path d="M51.2642 32.5938H53.7642V38.8438H51.2642V32.5938Z" fill="#F6F4F0"/>
<path d="M96.2642 41.3438H98.7642V47.5938H96.2642V41.3438Z" fill="#F6F4F0"/>
<path d="M96.2642 32.5938H98.7642V38.8438H96.2642V32.5938Z" fill="#F6F4F0"/>
<path d="M91.2642 32.5938H93.7642V47.5938H91.2642V32.5938Z" fill="#F6F4F0"/>
<path d="M41.2642 41.3438H43.7642V47.5938H41.2642V41.3438Z" fill="#F6F4F0"/>
<path d="M51.2642 63.8438H53.7642V70.0938H51.2642V63.8438Z" fill="#F6F4F0"/>
<path d="M41.2642 72.5938H43.7642V78.8438H41.2642V72.5938Z" fill="#F6F4F0"/>
<path d="M70.0142 71.3438C69.02 71.3448 68.0668 71.7403 67.3638 72.4433C66.6607 73.1463 66.2653 74.0995 66.2642 75.0938V86.3438H73.7642V75.0938C73.7631 74.0995 73.3677 73.1464 72.6646 72.4433C71.9616 71.7403 71.0084 71.3449 70.0142 71.3438Z" fill="#F6F4F0"/>
<path d="M41.2642 63.8438H43.7642V70.0938H41.2642V63.8438Z" fill="#F6F4F0"/>
<path d="M51.2642 72.5938H53.7642V78.8438H51.2642V72.5938Z" fill="#F6F4F0"/>
<path d="M46.2642 63.8438H48.7642V78.8438H46.2642V63.8438Z" fill="#F6F4F0"/>
<path d="M61.2642 50.0938H78.7642V52.5938H61.2642V50.0938Z" fill="#F6F4F0"/>
<path d="M86.2642 63.8438H88.7642V70.0938H86.2642V63.8438Z" fill="#F6F4F0"/>
<path d="M86.2642 72.5938H88.7642V78.8438H86.2642V72.5938Z" fill="#F6F4F0"/>
<path d="M86.2642 32.5938H88.7642V38.8438H86.2642V32.5938Z" fill="#F6F4F0"/>
<path d="M78.7642 26.3438H61.2642V47.5938H63.7642V36.3438C63.7642 34.6861 64.4227 33.0964 65.5948 31.9243C66.7669 30.7522 68.3566 30.0938 70.0142 30.0938C71.6718 30.0938 73.2615 30.7522 74.4336 31.9243C75.6057 33.0964 76.2642 34.6861 76.2642 36.3438V47.5938H78.7642V26.3438Z" fill="#F6F4F0"/>
<path d="M66.2642 36.3437V47.5938H68.7642V32.8241C68.0351 33.0809 67.4034 33.5571 66.9558 34.1873C66.5082 34.8174 66.2666 35.5708 66.2642 36.3437Z" fill="#F6F4F0"/>
<path d="M71.2642 32.8241V47.5938H73.7642V36.3437C73.7619 35.5708 73.5203 34.8174 73.0727 34.1873C72.625 33.5571 71.9933 33.0809 71.2642 32.8241Z" fill="#F6F4F0"/>
<path d="M64.3734 63.8438H75.6548L70.0142 60.3184L64.3734 63.8438Z" fill="#F6F4F0"/>
<path d="M96.2642 63.8438H98.7642V70.0938H96.2642V63.8438Z" fill="#F6F4F0"/>
<path d="M96.2642 72.5938H98.7642V78.8438H96.2642V72.5938Z" fill="#F6F4F0"/>
<path d="M91.2642 63.8438H93.7642V78.8438H91.2642V63.8438Z" fill="#F6F4F0"/>
<path d="M86.2642 41.3438H88.7642V47.5938H86.2642V41.3438Z" fill="#F6F4F0"/>
<path fill-rule="evenodd" clip-rule="evenodd" d="M39.9971 26.3477H48.4014V26.3438H58.7646V53.8438C58.7646 54.1751 58.8956 54.4931 59.1299 54.7275C59.3643 54.962 59.6831 55.0938 60.0146 55.0938H80.0146C80.346 55.0936 80.6641 54.9619 80.8984 54.7275C81.1327 54.4931 81.2646 54.1752 81.2646 53.8438V26.3438H103.765V86.3438H81.2646V65.0938C81.2646 64.8819 81.2102 64.6736 81.1074 64.4883C81.0046 64.303 80.8565 64.1464 80.6768 64.0342L70.6768 57.7842C70.4783 57.6598 70.2479 57.5938 70.0137 57.5938C69.7796 57.5938 69.5499 57.6598 69.3516 57.7842L59.3516 64.0342C59.1718 64.1464 59.0237 64.303 58.9209 64.4883C58.8182 64.6736 58.7646 64.8819 58.7646 65.0938V86.3438H36.2646V26.3438H39.9971V26.3477ZM40.0146 61.3438C39.6831 61.3438 39.3643 61.4755 39.1299 61.71C38.8956 61.9444 38.7646 62.2624 38.7646 62.5938V80.0938C38.7646 80.4251 38.8956 80.7431 39.1299 80.9775C39.3643 81.212 39.6831 81.3438 40.0146 81.3438H55.0146C55.346 81.3436 55.6641 81.2119 55.8984 80.9775C56.1327 80.7431 56.2646 80.4252 56.2646 80.0938V62.5938C56.2646 62.2623 56.1327 61.9444 55.8984 61.71C55.6641 61.4756 55.346 61.3439 55.0146 61.3438H40.0146ZM85.0146 61.3438C84.6831 61.3438 84.3643 61.4755 84.1299 61.71C83.8956 61.9444 83.7646 62.2624 83.7646 62.5938V80.0938C83.7646 80.4251 83.8956 80.7431 84.1299 80.9775C84.3643 81.212 84.6831 81.3438 85.0146 81.3438H100.015C100.346 81.3436 100.664 81.2119 100.898 80.9775C101.133 80.7431 101.265 80.4252 101.265 80.0938V62.5938C101.265 62.2623 101.133 61.9444 100.898 61.71C100.664 61.4756 100.346 61.3439 100.015 61.3438H85.0146ZM40.0146 30.0938C39.6831 30.0938 39.3643 30.2255 39.1299 30.46C38.8956 30.6944 38.7646 31.0124 38.7646 31.3438V48.8438C38.7646 49.1751 38.8956 49.4931 39.1299 49.7275C39.3643 49.962 39.6831 50.0938 40.0146 50.0938H55.0146C55.346 50.0936 55.6641 49.9619 55.8984 49.7275C56.1327 49.4931 56.2646 49.1752 56.2646 48.8438V31.3438C56.2646 31.0123 56.1327 30.6944 55.8984 30.46C55.6641 30.2256 55.346 30.0939 55.0146 30.0938H40.0146ZM85.0146 30.0938C84.6831 30.0938 84.3643 30.2255 84.1299 30.46C83.8956 30.6944 83.7646 31.0124 83.7646 31.3438V48.8438C83.7646 49.1751 83.8956 49.4931 84.1299 49.7275C84.3643 49.962 84.6831 50.0938 85.0146 50.0938H100.015C100.346 50.0936 100.664 49.9619 100.898 49.7275C101.133 49.4931 101.265 49.1752 101.265 48.8438V31.3438C101.265 31.0123 101.133 30.6944 100.898 30.46C100.664 30.2256 100.346 30.0939 100.015 30.0938H85.0146Z" fill="#F6F4F0"/>
<path d="M78.7646 86.3438H76.2646V75.0938C76.2646 73.4362 75.6056 71.8469 74.4336 70.6748C73.2616 69.5028 71.6721 68.8439 70.0146 68.8438C68.357 68.8438 66.7668 69.5027 65.5947 70.6748C64.4228 71.8469 63.7646 73.4363 63.7646 75.0938V86.3438H61.2646V66.3438H78.7646V86.3438Z" fill="#F6F4F0"/>
<path d="M104.496 23.8438H46.2646C46.2369 23.8438 46.2092 23.8458 46.1816 23.8477H41.3467C41.3194 23.8459 41.2921 23.8438 41.2646 23.8438H35.5312L45.5312 13.8438H94.4961L104.496 23.8438Z" fill="#F6F4F0"/>
<path d="M25.1484 106.18C25.1484 107.466 24.9089 108.542 24.4297 109.406C23.9505 110.266 23.2552 110.914 22.3438 111.352C21.4323 111.784 20.3333 112 19.0469 112H15.875V100.578H19.3906C20.5729 100.578 21.5938 100.792 22.4531 101.219C23.3125 101.641 23.9766 102.268 24.4453 103.102C24.9141 103.93 25.1484 104.956 25.1484 106.18ZM23.1953 106.234C23.1953 105.297 23.0469 104.526 22.75 103.922C22.4583 103.318 22.026 102.87 21.4531 102.578C20.8854 102.281 20.1849 102.133 19.3516 102.133H17.75V110.43H19.0781C20.4583 110.43 21.4896 110.078 22.1719 109.375C22.8542 108.672 23.1953 107.625 23.1953 106.234ZM30.6094 112V100.578H32.4844V112H30.6094ZM41.7109 100.578C42.6953 100.578 43.5078 100.698 44.1484 100.938C44.7943 101.177 45.2734 101.542 45.5859 102.031C45.9036 102.521 46.0625 103.143 46.0625 103.898C46.0625 104.461 45.9583 104.94 45.75 105.336C45.5417 105.732 45.2682 106.06 44.9297 106.32C44.5911 106.581 44.2292 106.789 43.8438 106.945L47.0859 112H44.9688L42.2109 107.422H40.375V112H38.5V100.578H41.7109ZM41.5859 102.141H40.375V105.875H41.6719C42.5417 105.875 43.1719 105.714 43.5625 105.391C43.9583 105.068 44.1562 104.591 44.1562 103.961C44.1562 103.299 43.9453 102.831 43.5234 102.555C43.1068 102.279 42.4609 102.141 41.5859 102.141ZM58.1875 112H51.7188V100.578H58.1875V102.156H53.5938V105.258H57.8984V106.828H53.5938V110.414H58.1875V112ZM68.5234 102.008C67.9766 102.008 67.487 102.107 67.0547 102.305C66.6276 102.503 66.2656 102.789 65.9688 103.164C65.6719 103.534 65.4453 103.984 65.2891 104.516C65.1328 105.042 65.0547 105.635 65.0547 106.297C65.0547 107.182 65.1797 107.945 65.4297 108.586C65.6797 109.221 66.0599 109.711 66.5703 110.055C67.0807 110.393 67.7266 110.562 68.5078 110.562C68.9922 110.562 69.4635 110.516 69.9219 110.422C70.3802 110.328 70.8542 110.201 71.3438 110.039V111.633C70.8802 111.815 70.4115 111.948 69.9375 112.031C69.4635 112.115 68.9167 112.156 68.2969 112.156C67.1302 112.156 66.1615 111.914 65.3906 111.43C64.625 110.945 64.0521 110.263 63.6719 109.383C63.2969 108.503 63.1094 107.471 63.1094 106.289C63.1094 105.424 63.2292 104.633 63.4688 103.914C63.7083 103.195 64.0573 102.576 64.5156 102.055C64.974 101.529 65.5391 101.125 66.2109 100.844C66.888 100.557 67.6615 100.414 68.5312 100.414C69.1042 100.414 69.6667 100.479 70.2188 100.609C70.776 100.734 71.2917 100.914 71.7656 101.148L71.1094 102.695C70.7135 102.508 70.2995 102.346 69.8672 102.211C69.4349 102.076 68.987 102.008 68.5234 102.008ZM80.7578 112H78.875V102.172H75.5312V100.578H84.0938V102.172H80.7578V112ZM98.9844 106.273C98.9844 107.154 98.8724 107.956 98.6484 108.68C98.4297 109.398 98.099 110.018 97.6562 110.539C97.2135 111.055 96.6589 111.453 95.9922 111.734C95.3255 112.016 94.5443 112.156 93.6484 112.156C92.737 112.156 91.9453 112.016 91.2734 111.734C90.6068 111.453 90.0521 111.052 89.6094 110.531C89.1719 110.01 88.8438 109.388 88.625 108.664C88.4062 107.94 88.2969 107.138 88.2969 106.258C88.2969 105.081 88.4896 104.055 88.875 103.18C89.2656 102.299 89.8568 101.617 90.6484 101.133C91.4453 100.643 92.4505 100.398 93.6641 100.398C94.8516 100.398 95.8385 100.641 96.625 101.125C97.4115 101.609 98 102.292 98.3906 103.172C98.7865 104.047 98.9844 105.081 98.9844 106.273ZM90.2656 106.273C90.2656 107.154 90.3854 107.917 90.625 108.562C90.8646 109.203 91.2318 109.698 91.7266 110.047C92.2266 110.391 92.8672 110.562 93.6484 110.562C94.4349 110.562 95.0755 110.391 95.5703 110.047C96.0651 109.698 96.4297 109.203 96.6641 108.562C96.8984 107.917 97.0156 107.154 97.0156 106.273C97.0156 104.935 96.7474 103.888 96.2109 103.133C95.6797 102.372 94.8307 101.992 93.6641 101.992C92.8828 101.992 92.2396 102.164 91.7344 102.508C91.2344 102.852 90.8646 103.344 90.625 103.984C90.3854 104.62 90.2656 105.383 90.2656 106.273ZM107.648 100.578C108.633 100.578 109.445 100.698 110.086 100.938C110.732 101.177 111.211 101.542 111.523 102.031C111.841 102.521 112 103.143 112 103.898C112 104.461 111.896 104.94 111.688 105.336C111.479 105.732 111.206 106.06 110.867 106.32C110.529 106.581 110.167 106.789 109.781 106.945L113.023 112H110.906L108.148 107.422H106.312V112H104.438V100.578H107.648ZM107.523 102.141H106.312V105.875H107.609C108.479 105.875 109.109 105.714 109.5 105.391C109.896 105.068 110.094 104.591 110.094 103.961C110.094 103.299 109.883 102.831 109.461 102.555C109.044 102.279 108.398 102.141 107.523 102.141ZM120.891 105.789L123.602 100.578H125.625L121.828 107.562V112H119.961V107.633L116.156 100.578H118.195L120.891 105.789Z" fill="#F6F4F0"/>
</svg>
