<svg width="112" height="97" viewBox="0 0 112 97" fill="none" xmlns="http://www.w3.org/2000/svg">
<g opacity="0.5">
<path d="M41.0114 33.075H43.0114V38.075H41.0114V33.075Z" fill="#F6F4F0"/>
<path d="M37.0114 26.075H39.0114V38.075H37.0114V26.075Z" fill="#F6F4F0"/>
<path d="M33.0114 26.075H35.0114V31.075H33.0114V26.075Z" fill="#F6F4F0"/>
<path d="M41.0114 26.075H43.0114V31.075H41.0114V26.075Z" fill="#F6F4F0"/>
<path d="M77.0114 33.075H79.0114V38.075H77.0114V33.075Z" fill="#F6F4F0"/>
<path d="M77.0114 26.075H79.0114V31.075H77.0114V26.075Z" fill="#F6F4F0"/>
<path d="M73.0114 26.075H75.0114V38.075H73.0114V26.075Z" fill="#F6F4F0"/>
<path d="M33.0114 33.075H35.0114V38.075H33.0114V33.075Z" fill="#F6F4F0"/>
<path d="M41.0114 51.075H43.0114V56.075H41.0114V51.075Z" fill="#F6F4F0"/>
<path d="M33.0114 58.075H35.0114V63.075H33.0114V58.075Z" fill="#F6F4F0"/>
<path d="M56.0114 57.075C55.216 57.0758 54.4534 57.3922 53.891 57.9546C53.3286 58.517 53.0122 59.2796 53.0114 60.075V69.075H59.0114V60.075C59.0105 59.2796 58.6941 58.517 58.1317 57.9546C57.5693 57.3922 56.8067 57.0758 56.0114 57.075Z" fill="#F6F4F0"/>
<path d="M33.0114 51.075H35.0114V56.075H33.0114V51.075Z" fill="#F6F4F0"/>
<path d="M41.0114 58.075H43.0114V63.075H41.0114V58.075Z" fill="#F6F4F0"/>
<path d="M37.0114 51.075H39.0114V63.075H37.0114V51.075Z" fill="#F6F4F0"/>
<path d="M49.0114 40.075H63.0114V42.075H49.0114V40.075Z" fill="#F6F4F0"/>
<path d="M69.0114 51.075H71.0114V56.075H69.0114V51.075Z" fill="#F6F4F0"/>
<path d="M69.0114 58.075H71.0114V63.075H69.0114V58.075Z" fill="#F6F4F0"/>
<path d="M69.0114 26.075H71.0114V31.075H69.0114V26.075Z" fill="#F6F4F0"/>
<path d="M63.0114 21.075H49.0114V38.075H51.0114V29.075C51.0114 27.7489 51.5381 26.4771 52.4758 25.5394C53.4135 24.6017 54.6853 24.075 56.0114 24.075C57.3374 24.075 58.6092 24.6017 59.5469 25.5394C60.4846 26.4771 61.0114 27.7489 61.0114 29.075V38.075H63.0114V21.075Z" fill="#F6F4F0"/>
<path d="M53.0114 29.0749V38.075H55.0114V26.2592C54.4281 26.4646 53.9227 26.8456 53.5646 27.3498C53.2065 27.8539 53.0133 28.4566 53.0114 29.0749Z" fill="#F6F4F0"/>
<path d="M57.0114 26.2592V38.075H59.0114V29.0749C59.0095 28.4566 58.8162 27.8539 58.4581 27.3498C58.1 26.8456 57.5946 26.4646 57.0114 26.2592Z" fill="#F6F4F0"/>
<path d="M51.4987 51.075H60.5239L56.0114 48.2547L51.4987 51.075Z" fill="#F6F4F0"/>
<path d="M77.0114 51.075H79.0114V56.075H77.0114V51.075Z" fill="#F6F4F0"/>
<path d="M77.0114 58.075H79.0114V63.075H77.0114V58.075Z" fill="#F6F4F0"/>
<path d="M73.0114 51.075H75.0114V63.075H73.0114V51.075Z" fill="#F6F4F0"/>
<path d="M69.0114 33.075H71.0114V38.075H69.0114V33.075Z" fill="#F6F4F0"/>
<path fill-rule="evenodd" clip-rule="evenodd" d="M31.9976 21.0781H38.7211V21.075H47.0117V43.075C47.0117 43.3401 47.1165 43.5945 47.3039 43.782C47.4914 43.9695 47.7465 44.075 48.0117 44.075H64.0117C64.2768 44.0749 64.5313 43.9694 64.7187 43.782C64.9062 43.5945 65.0117 43.3401 65.0117 43.075V21.075H83.0117V69.075H65.0117V52.075C65.0117 51.9055 64.9681 51.7388 64.8859 51.5906C64.8037 51.4424 64.6852 51.3171 64.5414 51.2273L56.5414 46.2273C56.3826 46.1278 56.1983 46.075 56.0109 46.075C55.8236 46.075 55.6399 46.1278 55.4812 46.2273L47.4812 51.2273C47.3375 51.3171 47.2189 51.4423 47.1367 51.5906C47.0545 51.7388 47.0117 51.9055 47.0117 52.075V69.075H29.0117V21.075H31.9976V21.0781ZM32.0117 49.075C31.7465 49.075 31.4914 49.1804 31.3039 49.3679C31.1165 49.5554 31.0117 49.8098 31.0117 50.075V64.075C31.0117 64.3401 31.1165 64.5945 31.3039 64.782C31.4914 64.9695 31.7465 65.075 32.0117 65.075H44.0117C44.2768 65.0749 44.5313 64.9694 44.7187 64.782C44.9062 64.5945 45.0117 64.3401 45.0117 64.075V50.075C45.0117 49.8098 44.9062 49.5554 44.7187 49.3679C44.5313 49.1805 44.2768 49.075 44.0117 49.075H32.0117ZM68.0117 49.075C67.7465 49.075 67.4914 49.1804 67.3039 49.3679C67.1165 49.5554 67.0117 49.8098 67.0117 50.075V64.075C67.0117 64.3401 67.1165 64.5945 67.3039 64.782C67.4914 64.9695 67.7465 65.075 68.0117 65.075H80.0117C80.2768 65.0749 80.5313 64.9694 80.7187 64.782C80.9062 64.5945 81.0117 64.3401 81.0117 64.075V50.075C81.0117 49.8098 80.9062 49.5554 80.7187 49.3679C80.5313 49.1805 80.2768 49.075 80.0117 49.075H68.0117ZM32.0117 24.075C31.7465 24.075 31.4914 24.1804 31.3039 24.3679C31.1165 24.5554 31.0117 24.8098 31.0117 25.075V39.075C31.0117 39.3401 31.1165 39.5945 31.3039 39.782C31.4914 39.9695 31.7465 40.075 32.0117 40.075H44.0117C44.2768 40.0749 44.5313 39.9694 44.7187 39.782C44.9062 39.5945 45.0117 39.3401 45.0117 39.075V25.075C45.0117 24.8098 44.9062 24.5554 44.7187 24.3679C44.5313 24.1805 44.2768 24.075 44.0117 24.075H32.0117ZM68.0117 24.075C67.7465 24.075 67.4914 24.1804 67.3039 24.3679C67.1165 24.5554 67.0117 24.8098 67.0117 25.075V39.075C67.0117 39.3401 67.1165 39.5945 67.3039 39.782C67.4914 39.9695 67.7465 40.075 68.0117 40.075H80.0117C80.2768 40.0749 80.5313 39.9694 80.7187 39.782C80.9062 39.5945 81.0117 39.3401 81.0117 39.075V25.075C81.0117 24.8098 80.9062 24.5554 80.7187 24.3679C80.5313 24.1805 80.2768 24.075 80.0117 24.075H68.0117Z" fill="#F6F4F0"/>
<path d="M63.0117 69.075H61.0117V60.075C61.0117 58.749 60.4844 57.4775 59.5469 56.5398C58.6093 55.6022 57.3377 55.075 56.0117 55.075C54.6856 55.075 53.4135 55.6021 52.4758 56.5398C51.5382 57.4775 51.0117 58.749 51.0117 60.075V69.075H49.0117V53.075H63.0117V69.075Z" fill="#F6F4F0"/>
<path d="M83.5969 19.075H37.0117C36.9895 19.075 36.9674 19.0766 36.9453 19.0781H33.0773C33.0555 19.0766 33.0337 19.075 33.0117 19.075H28.425L36.425 11.075H75.5969L83.5969 19.075Z" fill="#F6F4F0"/>
<path d="M20.1188 85.1438C20.1188 86.173 19.9271 87.0334 19.5438 87.725C19.1604 88.4125 18.6042 88.9313 17.875 89.2813C17.1458 89.6271 16.2667 89.8 15.2375 89.8H12.7V80.6625H15.5125C16.4583 80.6625 17.275 80.8334 17.9625 81.175C18.65 81.5125 19.1813 82.0146 19.5563 82.6813C19.9313 83.3438 20.1188 84.1646 20.1188 85.1438ZM18.5563 85.1875C18.5563 84.4375 18.4375 83.8209 18.2 83.3375C17.9667 82.8542 17.6208 82.4959 17.1625 82.2625C16.7083 82.025 16.1479 81.9063 15.4813 81.9063H14.2V88.5438H15.2625C16.3667 88.5438 17.1917 88.2625 17.7375 87.7C18.2833 87.1375 18.5563 86.3 18.5563 85.1875ZM24.4875 89.8V80.6625H25.9875V89.8H24.4875ZM33.3688 80.6625C34.1563 80.6625 34.8063 80.7584 35.3188 80.95C35.8354 81.1417 36.2188 81.4334 36.4688 81.825C36.7229 82.2167 36.85 82.7146 36.85 83.3188C36.85 83.7688 36.7667 84.1521 36.6 84.4688C36.4333 84.7855 36.2146 85.048 35.9438 85.2563C35.6729 85.4646 35.3833 85.6313 35.075 85.7563L37.6688 89.8H35.975L33.7688 86.1375H32.3V89.8H30.8V80.6625H33.3688ZM33.2688 81.9125H32.3V84.9H33.3375C34.0333 84.9 34.5375 84.7709 34.85 84.5125C35.1667 84.2542 35.325 83.873 35.325 83.3688C35.325 82.8396 35.1563 82.4646 34.8188 82.2438C34.4854 82.023 33.9688 81.9125 33.2688 81.9125ZM46.55 89.8H41.375V80.6625H46.55V81.925H42.875V84.4063H46.3188V85.6625H42.875V88.5313H46.55V89.8ZM54.8188 81.8063C54.3813 81.8063 53.9896 81.8855 53.6438 82.0438C53.3021 82.2021 53.0125 82.4313 52.775 82.7313C52.5375 83.0271 52.3563 83.3875 52.2313 83.8125C52.1063 84.2334 52.0438 84.7084 52.0438 85.2375C52.0438 85.9459 52.1438 86.5563 52.3438 87.0688C52.5438 87.5771 52.8479 87.9688 53.2563 88.2438C53.6646 88.5146 54.1813 88.65 54.8063 88.65C55.1938 88.65 55.5708 88.6125 55.9375 88.5375C56.3042 88.4625 56.6833 88.3605 57.075 88.2313V89.5063C56.7042 89.6521 56.3292 89.7584 55.95 89.825C55.5708 89.8917 55.1333 89.925 54.6375 89.925C53.7042 89.925 52.9292 89.7313 52.3125 89.3438C51.7 88.9563 51.2417 88.4105 50.9375 87.7063C50.6375 87.0021 50.4875 86.1771 50.4875 85.2313C50.4875 84.5396 50.5833 83.9063 50.775 83.3313C50.9667 82.7563 51.2458 82.2605 51.6125 81.8438C51.9792 81.423 52.4313 81.1 52.9688 80.875C53.5104 80.6459 54.1292 80.5313 54.825 80.5313C55.2833 80.5313 55.7333 80.5834 56.175 80.6875C56.6208 80.7875 57.0333 80.9313 57.4125 81.1188L56.8875 82.3563C56.5708 82.2063 56.2396 82.0771 55.8938 81.9688C55.5479 81.8605 55.1896 81.8063 54.8188 81.8063ZM64.6062 89.8H63.1V81.9375H60.425V80.6625H67.275V81.9375H64.6062V89.8ZM79.1875 85.2188C79.1875 85.923 79.0979 86.5646 78.9188 87.1438C78.7438 87.7188 78.4792 88.2146 78.125 88.6313C77.7708 89.0438 77.3271 89.3625 76.7938 89.5875C76.2604 89.8125 75.6354 89.925 74.9188 89.925C74.1896 89.925 73.5563 89.8125 73.0188 89.5875C72.4854 89.3625 72.0417 89.0417 71.6875 88.625C71.3375 88.2084 71.075 87.7105 70.9 87.1313C70.725 86.5521 70.6375 85.9105 70.6375 85.2063C70.6375 84.2646 70.7917 83.4438 71.1 82.7438C71.4125 82.0396 71.8854 81.4938 72.5188 81.1063C73.1563 80.7146 73.9604 80.5188 74.9313 80.5188C75.8813 80.5188 76.6708 80.7125 77.3 81.1C77.9292 81.4875 78.4 82.0334 78.7125 82.7375C79.0292 83.4375 79.1875 84.2646 79.1875 85.2188ZM72.2125 85.2188C72.2125 85.923 72.3083 86.5334 72.5 87.05C72.6917 87.5625 72.9854 87.9584 73.3813 88.2375C73.7813 88.5125 74.2938 88.65 74.9188 88.65C75.5479 88.65 76.0604 88.5125 76.4563 88.2375C76.8521 87.9584 77.1438 87.5625 77.3313 87.05C77.5188 86.5334 77.6125 85.923 77.6125 85.2188C77.6125 84.148 77.3979 83.3105 76.9688 82.7063C76.5438 82.098 75.8646 81.7938 74.9313 81.7938C74.3063 81.7938 73.7917 81.9313 73.3875 82.2063C72.9875 82.4813 72.6917 82.875 72.5 83.3875C72.3083 83.8959 72.2125 84.5063 72.2125 85.2188ZM86.1187 80.6625C86.9062 80.6625 87.5562 80.7584 88.0687 80.95C88.5854 81.1417 88.9687 81.4334 89.2187 81.825C89.4729 82.2167 89.6 82.7146 89.6 83.3188C89.6 83.7688 89.5167 84.1521 89.35 84.4688C89.1833 84.7855 88.9646 85.048 88.6937 85.2563C88.4229 85.4646 88.1333 85.6313 87.825 85.7563L90.4187 89.8H88.725L86.5187 86.1375H85.05V89.8H83.55V80.6625H86.1187ZM86.0187 81.9125H85.05V84.9H86.0875C86.7833 84.9 87.2875 84.7709 87.6 84.5125C87.9167 84.2542 88.075 83.873 88.075 83.3688C88.075 82.8396 87.9062 82.4646 87.5687 82.2438C87.2354 82.023 86.7187 81.9125 86.0187 81.9125ZM96.7125 84.8313L98.8813 80.6625H100.5L97.4625 86.25V89.8H95.9688V86.3063L92.925 80.6625H94.5563L96.7125 84.8313Z" fill="#F6F4F0"/>
</g>
</svg>
