<svg width="21" height="21" viewBox="0 0 21 21" fill="none" xmlns="http://www.w3.org/2000/svg">
<path d="M7.5 14.8389C4.9248 12.2725 3 9.24023 3 6.73535C3 5.62793 3.38672 4.64355 4.11621 3.94043C4.62598 3.44824 5.33789 3 5.92676 3C6.40137 3 6.71777 3.36035 7.13965 3.94922L8.61621 6.00586C8.94141 6.47168 9.05566 6.84082 9.05566 7.18359C9.05566 7.48242 8.99414 7.69336 8.76562 8.08008L7.93945 9.49512C7.86914 9.61816 7.80762 9.71484 7.80762 9.8291C7.80762 9.96973 7.86035 10.1104 7.9043 10.1982C8.23828 10.8574 8.88867 11.71 9.72363 12.5449C10.5586 13.3799 11.499 14.1182 12.167 14.4258C12.334 14.4961 12.4482 14.54 12.6152 14.54C12.7383 14.54 12.8086 14.5225 12.9756 14.4258L14.3818 13.6523C14.8389 13.4062 15.0674 13.3535 15.3398 13.3535C15.6562 13.3535 15.8936 13.4238 16.4297 13.8018L18.5742 15.3398C19.1543 15.7441 19.3828 16.0869 19.3828 16.4561C19.3828 16.9307 19.1631 17.4668 18.5215 18.1875C17.8535 18.9346 16.834 19.4004 15.665 19.4004C13.1777 19.4004 10.084 17.4316 7.5 14.8389Z" fill="#6C4200"/>
</svg>
