<svg width="24" height="25" viewBox="0 0 24 25" fill="none" xmlns="http://www.w3.org/2000/svg">
<path d="M12 22.4731C6.76569 22.4731 2.5 18.2075 2.5 12.9731C2.5 7.72952 6.76569 3.47314 12 3.47314C17.2436 3.47314 21.5 7.72952 21.5 12.9731C21.5 18.2075 17.2436 22.4731 12 22.4731ZM7.12892 13.979H11.9907C12.3539 13.979 12.6426 13.6996 12.6426 13.3271V7.04962C12.6426 6.68638 12.3539 6.40697 11.9907 6.40697C11.6275 6.40697 11.348 6.68638 11.348 7.04962V12.6844H7.12892C6.75637 12.6844 6.47696 12.9638 6.47696 13.3271C6.47696 13.6996 6.75637 13.979 7.12892 13.979Z" fill="#67412E"/>
</svg>
