<svg width="24" height="25" viewBox="0 0 24 25" fill="none" xmlns="http://www.w3.org/2000/svg">
<path d="M9.1585 6.68537L8.75584 5.77939C8.49256 5.18702 8.36092 4.89082 8.16405 4.66415C7.91732 4.38008 7.59571 4.17108 7.23592 4.06099C6.94883 3.97314 6.6247 3.97314 5.97645 3.97314C5.02815 3.97314 4.554 3.97314 4.15597 4.15543C3.68711 4.37016 3.26368 4.83642 3.09497 5.32374C2.95175 5.73743 2.99278 6.16257 3.07482 7.01284C3.94815 16.0633 8.91006 21.0252 17.9605 21.8985C18.8108 21.9806 19.236 22.0216 19.6496 21.8784C20.137 21.7097 20.6032 21.2862 20.818 20.8174C21.0002 20.4193 21.0002 19.9452 21.0002 18.9969C21.0002 18.3486 21.0002 18.0245 20.9124 17.7374C20.8023 17.3776 20.5933 17.056 20.3092 16.8093C20.0826 16.6124 19.7864 16.4808 19.194 16.2175L18.288 15.8148C17.6465 15.5297 17.3257 15.3872 16.9998 15.3562C16.6878 15.3265 16.3733 15.3703 16.0813 15.484C15.7762 15.6028 15.5066 15.8275 14.9672 16.2769C14.4304 16.7243 14.162 16.948 13.834 17.0678C13.5432 17.174 13.1588 17.2134 12.8526 17.1682C12.5071 17.1173 12.2426 16.976 11.7135 16.6932C10.0675 15.8136 9.15977 14.9059 8.28011 13.2598C7.99738 12.7308 7.85602 12.4662 7.80511 12.1208C7.75998 11.8145 7.79932 11.4301 7.90554 11.1394C8.02536 10.8114 8.24905 10.543 8.69643 10.0061C9.14586 9.46682 9.37058 9.19716 9.48939 8.89205C9.60309 8.60008 9.64686 8.28554 9.61719 7.97362C9.58618 7.64766 9.44362 7.3269 9.1585 6.68537Z" fill="#67412E"/>
</svg>
