<svg width="21" height="21" viewBox="0 0 21 21" fill="none" xmlns="http://www.w3.org/2000/svg">
<path d="M10.4956 11.9658C10.2172 11.9658 9.9388 11.8527 9.66038 11.609L0.968387 3.95244C1.44692 3.63921 1.98637 3.5 2.73463 3.5H18.2654C19.0136 3.5 19.5531 3.63921 20.0229 3.95244L11.3309 11.609C11.0612 11.8527 10.7828 11.9658 10.4956 11.9658ZM0.228827 17.0905C0.0896162 16.7599 0.00260925 16.3596 0.00260925 15.8028V6.19722C0.00260925 5.59687 0.115718 5.15313 0.211426 4.97042L6.66734 10.6607L0.228827 17.0905ZM20.7712 17.0905L14.3327 10.6607L20.7886 4.97042C20.8843 5.15313 20.9974 5.59687 20.9974 6.19722V15.8028C20.9974 16.3596 20.9017 16.7599 20.7712 17.0905ZM2.47361 18.5C1.82976 18.5 1.34252 18.3434 1.01189 18.1172L7.63312 11.4959L8.90342 12.627C9.40806 13.0708 9.95621 13.297 10.4956 13.297C11.0438 13.297 11.5919 13.0708 12.0966 12.627L13.3669 11.4959L19.9881 18.1172C19.6575 18.3434 19.1615 18.5 18.5264 18.5H2.47361Z" fill="#67412E"/>
</svg>
