<svg width="21" height="21" viewBox="0 0 21 21" fill="none" xmlns="http://www.w3.org/2000/svg">
<path d="M10.875 0C8.78727 0.00276942 6.78584 0.833344 5.30959 2.30959C3.83334 3.78584 3.00277 5.78727 3 7.875C3 13.5286 10.3369 20.6095 10.6486 20.9081C10.7092 20.9671 10.7904 21 10.875 21C10.9596 21 11.0408 20.9671 11.1014 20.9081C11.4131 20.6095 18.75 13.5286 18.75 7.875C18.7472 5.78727 17.9167 3.78584 16.4404 2.30959C14.9642 0.833344 12.9627 0.00276942 10.875 0ZM10.875 11.4844C10.1611 11.4844 9.4633 11.2727 8.86974 10.8761C8.27618 10.4795 7.81356 9.91578 7.54037 9.25625C7.26719 8.59672 7.19571 7.871 7.33498 7.17085C7.47425 6.4707 7.81801 5.82757 8.32279 5.32279C8.82757 4.81801 9.4707 4.47425 10.1708 4.33498C10.871 4.19571 11.5967 4.26719 12.2562 4.54037C12.9158 4.81356 13.4795 5.27618 13.8761 5.86974C14.2727 6.4633 14.4844 7.16113 14.4844 7.875C14.4838 8.83209 14.1033 9.74981 13.4266 10.4266C12.7498 11.1033 11.8321 11.4838 10.875 11.4844Z" fill="#67412E"/>
</svg>
