<svg width="24" height="25" viewBox="0 0 24 25" fill="none" xmlns="http://www.w3.org/2000/svg">
<path d="M11 2.97314C14.5424 2.97314 17.9112 5.07253 19.3144 8.35303C21.9062 14.4125 16.597 18.6123 12.6162 22.3403C12.1826 22.7461 11.603 22.9731 11 22.9731C10.3969 22.9731 9.81736 22.7462 9.38377 22.3403C5.41273 18.5993 0.0913429 14.4202 2.6865 8.35303C4.08968 5.0726 7.45761 2.97325 11 2.97314ZM11 8.97314C9.34315 8.97316 7.99998 10.3163 7.99998 11.9731C7.99998 13.63 9.34315 14.9731 11 14.9731C12.6568 14.9731 14 13.63 14 11.9731C14 10.3163 12.6568 8.97314 11 8.97314Z" fill="#67412E"/>
</svg>
