<svg width="20" height="20" viewBox="0 0 20 20" fill="none" xmlns="http://www.w3.org/2000/svg">
<path d="M12.2035 0.44165C14.5454 -0.247161 16.9959 -0.151636 18.5951 1.44751C19.6892 2.54185 20.0798 4.05388 19.9974 5.61938C19.9239 7.01424 19.476 8.52387 18.7376 10.0208C19.1004 10.7561 19.3906 11.4882 19.6009 12.2034C20.2897 14.5451 20.1939 16.9949 18.5951 18.594C16.9959 20.1931 14.5454 20.2887 12.2035 19.5999C11.4884 19.3895 10.756 19.1002 10.0208 18.7375C9.28563 19.1002 8.55328 19.3895 7.83823 19.5999C5.49638 20.2885 3.04666 20.1931 1.4476 18.594C0.35427 17.5005 -0.0363756 15.9902 0.0452576 14.426C0.118172 13.0302 0.565123 11.5188 1.30405 10.0208C0.941357 9.2855 0.652064 8.55323 0.441742 7.83813C-0.246993 5.49631 -0.151333 3.04662 1.4476 1.44751C3.04666 -0.151547 5.49639 -0.247034 7.83823 0.44165C8.55327 0.651958 9.28564 0.9413 10.0208 1.30396C10.756 0.941286 11.4884 0.65198 12.2035 0.44165ZM2.73764 12.4084C2.47317 13.1773 2.326 13.8986 2.29233 14.5432C2.23294 15.6809 2.52579 16.4904 3.03842 17.0032C3.78238 17.7471 5.19493 18.0323 7.20346 17.4417C7.34507 17.4 7.48861 17.3537 7.63315 17.304C6.72244 16.6576 5.82954 15.9056 4.98276 15.0588C4.136 14.2121 3.38401 13.3192 2.73764 12.4084ZM7.20346 2.59985C5.19495 2.00921 3.78237 2.29438 3.03842 3.03833C2.29456 3.78238 2.01017 5.19481 2.60092 7.20337C3.17807 9.16558 4.53358 11.427 6.57455 13.468C7.68607 14.5795 8.86255 15.4881 10.0208 16.178C11.1792 15.4881 12.3565 14.5796 13.4681 13.468C13.7489 13.1872 14.0174 12.9014 14.2728 12.6125C14.6844 12.1472 15.3953 12.1042 15.8607 12.5159C16.3261 12.9275 16.37 13.6384 15.9583 14.1038C15.6725 14.427 15.3721 14.7457 15.0589 15.0588C14.2122 15.9055 13.3201 16.6576 12.4095 17.304C12.5539 17.3536 12.6967 17.4 12.8382 17.4417C14.8469 18.0325 16.2602 17.7472 17.0042 17.0032C17.748 16.2591 18.0325 14.8466 17.4417 12.8381C17.2342 12.1325 16.9264 11.388 16.5218 10.6292C16.4931 10.5839 16.4676 10.5361 16.4456 10.4875C15.7299 9.18042 14.7295 7.83492 13.4681 6.57349C12.3565 5.46193 11.1792 4.55339 10.0208 3.86353C8.86255 4.55336 7.68607 5.46202 6.57455 6.57349C6.28098 6.86706 6.00051 7.16579 5.73471 7.46802C5.32438 7.93457 4.61337 7.97991 4.14682 7.56958C3.68067 7.15929 3.63528 6.44911 4.04526 5.98267C4.34281 5.64434 4.65537 5.31006 4.98276 4.98267C5.82955 4.13587 6.72242 3.38395 7.63315 2.73755C7.48861 2.68782 7.34507 2.6415 7.20346 2.59985ZM10.0003 7.75024C11.2428 7.75043 12.2503 8.75772 12.2503 10.0002C12.2502 11.2426 11.2427 12.2501 10.0003 12.2502C8.7578 12.2502 7.7505 11.2427 7.75034 10.0002C7.75034 8.7576 8.75769 7.75024 10.0003 7.75024ZM17.0042 3.03833C16.2602 2.29433 14.8469 2.00905 12.8382 2.59985C12.6967 2.64147 12.5539 2.68787 12.4095 2.73755C13.3201 3.38388 14.2122 4.13599 15.0589 4.98267C15.9058 5.82952 16.6586 6.72226 17.305 7.63306C17.5691 6.86526 17.7164 6.14523 17.7503 5.50122C17.8103 4.36228 17.5172 3.55149 17.0042 3.03833Z" fill="white"/>
</svg>
