<svg width="140" height="121" viewBox="0 0 140 121" fill="none" xmlns="http://www.w3.org/2000/svg">
<path d="M85.4279 50.7143C86.3747 50.7143 87.1422 49.9468 87.1422 49C87.1422 48.0532 86.3747 47.2857 85.4279 47.2857C84.4811 47.2857 83.7136 48.0532 83.7136 49C83.7136 49.9468 84.4811 50.7143 85.4279 50.7143Z" fill="#F6F4F0"/>
<path d="M54.5707 57.5714C55.5175 57.5714 56.285 56.8039 56.285 55.8571C56.285 54.9104 55.5175 54.1429 54.5707 54.1429C53.624 54.1429 52.8565 54.9104 52.8565 55.8571C52.8565 56.8039 53.624 57.5714 54.5707 57.5714Z" fill="#F6F4F0"/>
<path d="M81.9993 67.8571C82.9461 67.8571 83.7136 67.0896 83.7136 66.1429C83.7136 65.1961 82.9461 64.4286 81.9993 64.4286C81.0525 64.4286 80.285 65.1961 80.285 66.1429C80.285 67.0896 81.0525 67.8571 81.9993 67.8571Z" fill="#F6F4F0"/>
<path d="M87.1428 30.1429H85.705V30.1332H73.9337V30.1429H52.8571V26.7143H87.1428V30.1429Z" fill="#F6F4F0"/>
<path fill-rule="evenodd" clip-rule="evenodd" d="M94 78.1429H56.2857C56.2744 78.1429 56.2631 78.1435 56.2518 78.1437H49.4624C49.4511 78.1435 49.4399 78.1429 49.4285 78.1429H46V19.8571H94V78.1429ZM71.7142 40.4286C71.2596 40.4286 70.8235 40.6091 70.502 40.9306C70.1805 41.2521 70 41.6882 70 42.1429C70 42.5975 70.1805 43.0336 70.502 43.3551C70.8235 43.6766 71.2596 43.8571 71.7142 43.8571H81.2893L82.3432 44.9108C81.7047 45.3844 81.1859 46.001 80.8285 46.7111C80.4711 47.4212 80.285 48.2051 80.285 49C80.285 49.7949 80.4711 50.5788 80.8285 51.2889C81.1859 51.999 81.7047 52.6156 82.3432 53.0892L81.2893 54.1429H59.3976C59.11 53.3246 58.6195 52.5926 57.9721 52.0153C57.3248 51.438 56.5415 51.0341 55.6958 50.8417C54.85 50.6493 53.969 50.6747 53.1356 50.9152C52.3023 51.1556 51.5435 51.6034 50.9302 52.2168C50.3169 52.8302 49.8692 53.589 49.6288 54.4224C49.3884 55.2558 49.3633 56.1366 49.5558 56.9824C49.7482 57.8281 50.152 58.6114 50.7293 59.2587C51.3067 59.906 52.0388 60.3965 52.8571 60.684V73C52.8571 73.4547 53.0376 73.8908 53.3591 74.2123C53.6806 74.5338 54.1167 74.7143 54.5714 74.7143H59.7142C59.9392 74.7142 60.162 74.6699 60.3699 74.5837C60.5777 74.4975 60.7666 74.3712 60.9257 74.212L67.2804 67.8571H77.1729C77.5773 69.0009 78.3731 69.965 79.4195 70.5788C80.4659 71.1927 81.6957 71.4168 82.8914 71.2116C84.0871 71.0065 85.1718 70.3853 85.9538 69.4578C86.7357 68.5303 87.1646 67.356 87.1646 66.1429C87.1646 64.9297 86.7357 63.7555 85.9538 62.8279C85.1718 61.9004 84.0871 61.2792 82.8914 61.0741C81.6957 60.8689 80.4659 61.0931 79.4195 61.7069C78.3731 62.3207 77.5773 63.2848 77.1729 64.4286H66.5714C66.3463 64.4286 66.1233 64.473 65.9154 64.5592C65.7074 64.6453 65.5183 64.7716 65.3591 64.9308L59.0042 71.2857H56.2857V60.6842C57.0026 60.4284 57.6539 60.0164 58.1921 59.478C58.7302 58.9397 59.1421 58.2884 59.3976 57.5714H82C82.2251 57.5714 82.448 57.527 82.656 57.4408C82.8639 57.3547 83.0529 57.2284 83.212 57.0692L86.2181 54.0629C87.4286 53.8784 88.5331 53.2662 89.3311 52.3373C90.129 51.4085 90.5678 50.2245 90.5678 49C90.5678 47.7755 90.129 46.5915 89.3311 45.6627C88.5331 44.7338 87.4286 44.1216 86.2181 43.9371L83.212 40.9308C83.0529 40.7716 82.8639 40.6453 82.656 40.5592C82.448 40.473 82.2251 40.4285 82 40.4286H71.7142ZM51.1428 43.8571C50.6882 43.8571 50.252 44.0377 49.9306 44.3592C49.6091 44.6807 49.4285 45.1168 49.4285 45.5714C49.4285 46.0261 49.6091 46.4622 49.9306 46.7837C50.252 47.1052 50.6882 47.2857 51.1428 47.2857H56.2857C56.7403 47.2857 57.1765 47.1052 57.4979 46.7837C57.8194 46.4622 58 46.0261 58 45.5714C58 45.1168 57.8194 44.6807 57.4979 44.3592C57.1765 44.0377 56.7403 43.8571 56.2857 43.8571H51.1428ZM63.1428 43.8571C62.6882 43.8571 62.252 44.0377 61.9306 44.3592C61.6091 44.6807 61.4285 45.1168 61.4285 45.5714C61.4285 46.0261 61.6091 46.4622 61.9306 46.7837C62.252 47.1052 62.6882 47.2857 63.1428 47.2857H64.8571C65.3118 47.2857 65.7479 47.1052 66.0694 46.7837C66.3909 46.4622 66.5714 46.0261 66.5714 45.5714C66.5714 45.1168 66.3909 44.6807 66.0694 44.3592C65.7479 44.0377 65.3118 43.8571 64.8571 43.8571H63.1428ZM51.1428 37C50.6882 37 50.252 37.1805 49.9306 37.502C49.6091 37.8235 49.4285 38.2596 49.4285 38.7143C49.4285 39.1689 49.6091 39.6051 49.9306 39.9265C50.252 40.248 50.6882 40.4286 51.1428 40.4286H64.8571C65.3118 40.4286 65.7479 40.248 66.0694 39.9265C66.3909 39.6051 66.5714 39.1689 66.5714 38.7143C66.5714 38.2596 66.3909 37.8235 66.0694 37.502C65.7479 37.1805 65.3118 37 64.8571 37H51.1428ZM51.1428 23.2857C50.6882 23.2857 50.252 23.4662 49.9306 23.7877C49.6091 24.1092 49.4285 24.5453 49.4285 25V31.8571C49.4285 32.3118 49.6091 32.7479 49.9306 33.0694C50.252 33.3909 50.6882 33.5714 51.1428 33.5714H76.8571C76.8742 33.5714 76.8912 33.5707 76.9082 33.5702H83.6632C83.6802 33.5707 83.6972 33.5714 83.7142 33.5714H88.8571C89.3118 33.5714 89.7479 33.3909 90.0694 33.0694C90.3909 32.7479 90.5714 32.3118 90.5714 31.8571V25C90.5714 24.5453 90.3909 24.1092 90.0694 23.7877C89.7479 23.4662 89.3118 23.2857 88.8571 23.2857H51.1428Z" fill="#F6F4F0"/>
<path fill-rule="evenodd" clip-rule="evenodd" d="M97.4285 13C98.3375 13.0011 99.2091 13.3626 99.8518 14.0053C100.495 14.648 100.856 15.5196 100.857 16.4286V81.5714C100.856 82.4804 100.494 83.3518 99.8516 83.9945C99.2089 84.6372 98.3375 84.9988 97.4285 85H42.5714C41.6624 84.9988 40.7911 84.6372 40.1483 83.9945C39.5056 83.3518 39.144 82.4804 39.1428 81.5714V16.4286C39.1438 15.5196 39.5054 14.6481 40.1481 14.0053C40.7909 13.3625 41.6624 13.001 42.5714 13H97.4285ZM46 16.4286C45.091 16.4296 44.2195 16.7911 43.5767 17.4339C42.9339 18.0766 42.5724 18.9481 42.5714 19.8571V78.1429C42.5726 79.0518 42.9342 79.9232 43.5769 80.5659C44.2196 81.2086 45.091 81.5702 46 81.5714H49.4285C49.4541 81.5714 49.4795 81.5707 49.5049 81.5695H56.2093C56.2347 81.5707 56.2602 81.5714 56.2857 81.5714H94C94.9089 81.5702 95.7803 81.2086 96.423 80.5659C97.0657 79.9232 97.4273 79.0518 97.4285 78.1429V19.8571C97.4275 18.9482 97.066 18.0766 96.4232 17.4339C95.7805 16.7911 94.9089 16.4296 94 16.4286H46Z" fill="#F6F4F0"/>
<path d="M55.8438 112L52.5547 102.461H52.4844C52.5 102.674 52.5182 102.966 52.5391 103.336C52.5599 103.706 52.5781 104.102 52.5938 104.523C52.6094 104.945 52.6172 105.349 52.6172 105.734V112H50.9141V100.578H53.5469L56.7109 109.695H56.7578L60.0312 100.578H62.6562V112H60.8672V105.641C60.8672 105.292 60.8724 104.914 60.8828 104.508C60.8984 104.102 60.9141 103.716 60.9297 103.352C60.9505 102.987 60.9661 102.695 60.9766 102.477H60.9141L57.5 112H55.8438ZM75.7422 112L74.625 108.828H70.2578L69.1406 112H67.1641L71.4141 100.531H73.4922L77.7344 112H75.7422ZM74.1406 107.219L73.0547 104.094C73.013 103.958 72.9531 103.768 72.875 103.523C72.7969 103.273 72.7188 103.021 72.6406 102.766C72.5625 102.505 72.4974 102.286 72.4453 102.109C72.3932 102.323 72.3281 102.562 72.25 102.828C72.1771 103.089 72.1042 103.333 72.0312 103.562C71.9635 103.792 71.9115 103.969 71.875 104.094L70.7812 107.219H74.1406ZM85.5625 100.578C87.0365 100.578 88.112 100.88 88.7891 101.484C89.4661 102.089 89.8047 102.935 89.8047 104.023C89.8047 104.518 89.7266 104.99 89.5703 105.438C89.4193 105.88 89.1693 106.273 88.8203 106.617C88.4714 106.956 88.0104 107.224 87.4375 107.422C86.8698 107.62 86.1693 107.719 85.3359 107.719H84.1172V112H82.2422V100.578H85.5625ZM85.4375 102.133H84.1172V106.156H85.1406C85.7292 106.156 86.2292 106.089 86.6406 105.953C87.0521 105.812 87.3646 105.591 87.5781 105.289C87.7917 104.987 87.8984 104.589 87.8984 104.094C87.8984 103.432 87.6979 102.94 87.2969 102.617C86.901 102.294 86.2812 102.133 85.4375 102.133Z" fill="#F6F4F0"/>
</svg>
