<svg width="112" height="97" viewBox="0 0 112 97" fill="none" xmlns="http://www.w3.org/2000/svg">
<g opacity="0.5">
<path d="M68.3423 40.5715C69.0997 40.5715 69.7138 39.9574 69.7138 39.2C69.7138 38.4426 69.0997 37.8286 68.3423 37.8286C67.5849 37.8286 66.9709 38.4426 66.9709 39.2C66.9709 39.9574 67.5849 40.5715 68.3423 40.5715Z" fill="#F6F4F0"/>
<path d="M43.6566 46.0572C44.414 46.0572 45.028 45.4432 45.028 44.6857C45.028 43.9283 44.414 43.3143 43.6566 43.3143C42.8992 43.3143 42.2852 43.9283 42.2852 44.6857C42.2852 45.4432 42.8992 46.0572 43.6566 46.0572Z" fill="#F6F4F0"/>
<path d="M65.5995 54.2857C66.3569 54.2857 66.9709 53.6717 66.9709 52.9143C66.9709 52.1569 66.3569 51.5429 65.5995 51.5429C64.842 51.5429 64.228 52.1569 64.228 52.9143C64.228 53.6717 64.842 54.2857 65.5995 54.2857Z" fill="#F6F4F0"/>
<path d="M69.7143 24.1143H68.564V24.1066H59.147V24.1143H42.2857V21.3715H69.7143V24.1143Z" fill="#F6F4F0"/>
<path fill-rule="evenodd" clip-rule="evenodd" d="M75.2 62.5143H45.0286C45.0195 62.5143 45.0105 62.5148 45.0014 62.515H39.57C39.5609 62.5148 39.5519 62.5143 39.5428 62.5143H36.8V15.8857H75.2V62.5143ZM57.3714 32.3429C57.0077 32.3429 56.6588 32.4873 56.4016 32.7445C56.1444 33.0017 56 33.3506 56 33.7143C56 34.078 56.1444 34.4269 56.4016 34.6841C56.6588 34.9413 57.0077 35.0857 57.3714 35.0857H65.0315L65.8745 35.9287C65.3637 36.3075 64.9487 36.8008 64.6628 37.3689C64.3769 37.9369 64.2281 38.5641 64.2281 39.2C64.2281 39.836 64.3769 40.4631 64.6628 41.0312C64.9487 41.5992 65.3637 42.0925 65.8745 42.4714L65.0315 43.3143H47.5181C47.288 42.6597 46.8956 42.0741 46.3777 41.6122C45.8598 41.1504 45.2332 40.8273 44.5566 40.6734C43.88 40.5195 43.1752 40.5398 42.5085 40.7322C41.8418 40.9245 41.2348 41.2828 40.7442 41.7735C40.2535 42.2642 39.8954 42.8712 39.7031 43.538C39.5108 44.2047 39.4907 44.9093 39.6446 45.5859C39.7986 46.2625 40.1216 46.8891 40.5835 47.407C41.0453 47.9249 41.631 48.3172 42.2857 48.5472V58.4C42.2857 58.7637 42.4301 59.1126 42.6873 59.3698C42.9445 59.627 43.2934 59.7715 43.6571 59.7715H47.7714C47.9514 59.7714 48.1296 59.7359 48.2959 59.667C48.4622 59.598 48.6133 59.497 48.7406 59.3697L53.8243 54.2857H61.7383C62.0618 55.2008 62.6985 55.972 63.5356 56.4631C64.3728 56.9541 65.3566 57.1334 66.3131 56.9693C67.2697 56.8052 68.1375 56.3083 68.763 55.5663C69.3886 54.8242 69.7317 53.8848 69.7317 52.9143C69.7317 51.9438 69.3886 51.0044 68.763 50.2624C68.1375 49.5203 67.2697 49.0234 66.3131 48.8593C65.3566 48.6952 64.3728 48.8745 63.5356 49.3655C62.6985 49.8566 62.0618 50.6278 61.7383 51.5429H53.2571C53.077 51.5429 52.8987 51.5784 52.7323 51.6473C52.5659 51.7163 52.4147 51.8173 52.2873 51.9447L47.2034 57.0286H45.0286V48.5474C45.6021 48.3428 46.1231 48.0131 46.5537 47.5824C46.9842 47.1518 47.3137 46.6308 47.5181 46.0572H65.6C65.7801 46.0572 65.9584 46.0216 66.1248 45.9527C66.2912 45.8838 66.4423 45.7828 66.5696 45.6554L68.9745 43.2504C69.9429 43.1027 70.8265 42.613 71.4649 41.8699C72.1032 41.1268 72.4543 40.1796 72.4543 39.2C72.4543 38.2204 72.1032 37.2732 71.4649 36.5302C70.8265 35.7871 69.9429 35.2973 68.9745 35.1497L66.5696 32.7447C66.4423 32.6173 66.2912 32.5163 66.1248 32.4473C65.9584 32.3784 65.7801 32.3429 65.6 32.3429H57.3714ZM40.9143 35.0857C40.5505 35.0857 40.2017 35.2302 39.9445 35.4874C39.6873 35.7445 39.5428 36.0934 39.5428 36.4572C39.5428 36.8209 39.6873 37.1698 39.9445 37.427C40.2017 37.6842 40.5505 37.8286 40.9143 37.8286H45.0286C45.3923 37.8286 45.7412 37.6842 45.9984 37.427C46.2556 37.1698 46.4 36.8209 46.4 36.4572C46.4 36.0934 46.2556 35.7445 45.9984 35.4874C45.7412 35.2302 45.3923 35.0857 45.0286 35.0857H40.9143ZM50.5143 35.0857C50.1505 35.0857 49.8017 35.2302 49.5445 35.4874C49.2873 35.7445 49.1428 36.0934 49.1428 36.4572C49.1428 36.8209 49.2873 37.1698 49.5445 37.427C49.8017 37.6842 50.1505 37.8286 50.5143 37.8286H51.8857C52.2494 37.8286 52.5983 37.6842 52.8555 37.427C53.1127 37.1698 53.2571 36.8209 53.2571 36.4572C53.2571 36.0934 53.1127 35.7445 52.8555 35.4874C52.5983 35.2302 52.2494 35.0857 51.8857 35.0857H50.5143ZM40.9143 29.6C40.5505 29.6 40.2017 29.7444 39.9445 30.0016C39.6873 30.2588 39.5428 30.6077 39.5428 30.9715C39.5428 31.3352 39.6873 31.6841 39.9445 31.9413C40.2017 32.1985 40.5505 32.3429 40.9143 32.3429H51.8857C52.2494 32.3429 52.5983 32.1985 52.8555 31.9413C53.1127 31.6841 53.2571 31.3352 53.2571 30.9715C53.2571 30.6077 53.1127 30.2588 52.8555 30.0016C52.5983 29.7444 52.2494 29.6 51.8857 29.6H40.9143ZM40.9143 18.6286C40.5505 18.6286 40.2017 18.773 39.9445 19.0302C39.6873 19.2874 39.5428 19.6363 39.5428 20V25.4857C39.5428 25.8495 39.6873 26.1984 39.9445 26.4555C40.2017 26.7127 40.5505 26.8572 40.9143 26.8572H61.4857C61.4993 26.8572 61.5129 26.8566 61.5265 26.8562H66.9306C66.9442 26.8566 66.9578 26.8572 66.9714 26.8572H71.0857C71.4494 26.8572 71.7983 26.7127 72.0555 26.4555C72.3127 26.1984 72.4571 25.8495 72.4571 25.4857V20C72.4571 19.6363 72.3127 19.2874 72.0555 19.0302C71.7983 18.773 71.4494 18.6286 71.0857 18.6286H40.9143Z" fill="#F6F4F0"/>
<path fill-rule="evenodd" clip-rule="evenodd" d="M77.9428 10.4C78.67 10.4009 79.3673 10.6901 79.8815 11.2043C80.3956 11.7185 80.6848 12.4157 80.6857 13.1429V65.2572C80.6847 65.9843 80.3955 66.6814 79.8813 67.1956C79.3671 67.7098 78.67 67.9991 77.9428 68H34.0571C33.33 67.9991 32.6329 67.7098 32.1187 67.1956C31.6045 66.6814 31.3152 65.9843 31.3143 65.2572V13.1429C31.3151 12.4157 31.6043 11.7185 32.1185 11.2043C32.6327 10.6901 33.3299 10.4008 34.0571 10.4H77.9428ZM36.8 13.1429C36.0728 13.1437 35.3756 13.4329 34.8614 13.9471C34.3472 14.4613 34.0579 15.1585 34.0571 15.8857V62.5143C34.0581 63.2415 34.3474 63.9386 34.8615 64.4528C35.3757 64.9669 36.0728 65.2562 36.8 65.2572H39.5428C39.5633 65.2572 39.5836 65.2566 39.6039 65.2557H44.9674C44.9878 65.2566 45.0081 65.2572 45.0286 65.2572H75.2C75.9271 65.2562 76.6242 64.9669 77.1384 64.4528C77.6526 63.9386 77.9419 63.2415 77.9428 62.5143V15.8857C77.942 15.1586 77.6528 14.4613 77.1386 13.9471C76.6244 13.4329 75.9272 13.1437 75.2 13.1429H36.8Z" fill="#F6F4F0"/>
<path d="M44.675 89.8L42.0438 82.1688H41.9875C42 82.3396 42.0146 82.573 42.0313 82.8688C42.0479 83.1646 42.0625 83.4813 42.075 83.8188C42.0875 84.1563 42.0938 84.4792 42.0938 84.7875V89.8H40.7313V80.6625H42.8375L45.3688 87.9563H45.4063L48.025 80.6625H50.125V89.8H48.6938V84.7125C48.6938 84.4334 48.6979 84.1313 48.7063 83.8063C48.7188 83.4813 48.7313 83.173 48.7438 82.8813C48.7604 82.5896 48.7729 82.3563 48.7813 82.1813H48.7313L46 89.8H44.675ZM60.5938 89.8L59.7 87.2625H56.2063L55.3125 89.8H53.7313L57.1313 80.625H58.7938L62.1875 89.8H60.5938ZM59.3125 85.975L58.4438 83.475C58.4104 83.3667 58.3625 83.2146 58.3 83.0188C58.2375 82.8188 58.175 82.6167 58.1125 82.4125C58.05 82.2042 57.9979 82.0292 57.9563 81.8875C57.9146 82.0584 57.8625 82.25 57.8 82.4625C57.7417 82.6709 57.6833 82.8667 57.625 83.05C57.5708 83.2334 57.5292 83.375 57.5 83.475L56.625 85.975H59.3125ZM68.45 80.6625C69.6292 80.6625 70.4896 80.9042 71.0313 81.3875C71.5729 81.8709 71.8438 82.548 71.8438 83.4188C71.8438 83.8146 71.7813 84.1917 71.6563 84.55C71.5354 84.9042 71.3354 85.2188 71.0563 85.4938C70.7771 85.7646 70.4083 85.9792 69.95 86.1375C69.4958 86.2959 68.9354 86.375 68.2688 86.375H67.2938V89.8H65.7938V80.6625H68.45ZM68.35 81.9063H67.2938V85.125H68.1125C68.5833 85.125 68.9833 85.0709 69.3125 84.9625C69.6417 84.85 69.8917 84.673 70.0625 84.4313C70.2333 84.1896 70.3188 83.8709 70.3188 83.475C70.3188 82.9459 70.1583 82.5521 69.8375 82.2938C69.5208 82.0355 69.025 81.9063 68.35 81.9063Z" fill="#F6F4F0"/>
</g>
</svg>
