<svg width="31" height="30" viewBox="0 0 31 30" fill="none" xmlns="http://www.w3.org/2000/svg">
<path d="M19.7754 4.63672C19.2578 4.63672 18.8379 4.19727 18.8379 3.68945V1.73633C18.8379 1.21875 19.2578 0.798828 19.7754 0.798828C20.293 0.798828 20.7129 1.21875 20.7129 1.73633V3.68945C20.7129 4.19727 20.293 4.63672 19.7754 4.63672ZM13.877 6.52148L12.5 5.13477C12.1387 4.77344 12.1289 4.17773 12.4902 3.81641C12.8516 3.45508 13.457 3.44531 13.8184 3.81641L15.2051 5.21289C15.5664 5.58398 15.5664 6.16992 15.2148 6.53125C14.8535 6.89258 14.248 6.89258 13.877 6.52148ZM24.3457 6.53125C23.9941 6.17969 23.9844 5.57422 24.3555 5.21289L25.7422 3.82617C26.1133 3.46484 26.6992 3.45508 27.0605 3.81641C27.4219 4.17773 27.4219 4.7832 27.0605 5.14453L25.6836 6.53125C25.3125 6.89258 24.6973 6.89258 24.3457 6.53125ZM5.30273 21.2773C2.70508 21.2773 0.908203 19.5781 0.908203 17.2051C0.908203 15.3691 2.02148 13.8945 3.71094 13.3574C4.13086 10.0762 6.875 7.60547 10.1855 7.60547C12.1582 7.60547 13.8379 8.37695 15.0391 9.75391C15.6152 7.67383 17.5098 6.16992 19.7852 6.16992C22.5195 6.16992 24.707 8.36719 24.707 11.1016C24.707 13.3477 23.2227 15.2129 21.1816 15.8086C21.1914 15.9258 21.1914 16.0332 21.1914 16.1504C21.1914 19.041 18.8965 21.2773 15.9473 21.2773H5.30273ZM16.6602 11.0918C18.5352 11.3555 20.0488 12.4785 20.7617 14.0703C22.0117 13.6602 22.9004 12.4785 22.9004 11.0918C22.9004 9.33398 21.5234 7.95703 19.7852 7.95703C18.0371 7.95703 16.6602 9.33398 16.6602 11.0918ZM5.3125 19.2949H15.9375C17.832 19.2949 19.1992 17.9277 19.1992 16.1895C19.1992 14.4219 17.8809 12.9766 15.3418 12.9766C14.8145 12.9766 14.5703 12.8301 14.3457 12.3906C13.418 10.5938 11.9922 9.58789 10.1855 9.58789C7.85156 9.58789 5.9375 11.375 5.63477 14.1484C5.57617 14.666 5.41016 14.9004 4.90234 15.0273C3.50586 15.3984 2.90039 16.2383 2.90039 17.2441C2.90039 18.4062 3.7207 19.2949 5.3125 19.2949ZM27.168 12.0293C26.6602 12.0293 26.2305 11.6094 26.2305 11.1016C26.2305 10.584 26.6602 10.1641 27.168 10.1641H29.1309C29.6484 10.1641 30.0684 10.584 30.0684 11.1016C30.0684 11.6094 29.6484 12.0293 29.1309 12.0293H27.168ZM25.7422 18.3867L24.3555 17C23.9941 16.6387 23.9844 16.0332 24.3457 15.6719C24.707 15.3105 25.3125 15.3203 25.6641 15.6719L27.0508 17.0684C27.4121 17.4297 27.4219 18.0254 27.0605 18.3867C26.6992 18.748 26.1133 18.748 25.7422 18.3867ZM12.9883 25.9062C12.8027 26.2383 12.4023 26.3652 12.0605 26.1699C11.7285 25.9746 11.6406 25.584 11.8262 25.2617L13.0859 23.084C13.291 22.7422 13.6621 22.625 14.0039 22.8203C14.3359 23.0156 14.4336 23.416 14.2383 23.748L12.9883 25.9062ZM5.21484 25.916C5.0293 26.248 4.62891 26.3652 4.29688 26.1797C3.95508 25.9844 3.86719 25.584 4.05273 25.2715L5.3125 23.0938C5.51758 22.752 5.88867 22.6348 6.23047 22.8301C6.5625 23.0254 6.66016 23.4258 6.46484 23.7578L5.21484 25.916ZM16.0547 28.6504C15.8691 28.9824 15.4688 29.1094 15.1367 28.9141C14.7949 28.7188 14.707 28.3281 14.8926 28.0059L16.1523 25.8281C16.3574 25.4863 16.7285 25.3691 17.0703 25.5645C17.4023 25.7598 17.5 26.1602 17.3047 26.4922L16.0547 28.6504ZM8.28125 28.6602C8.0957 28.9824 7.69531 29.1094 7.36328 28.9238C7.02148 28.7285 6.93359 28.3281 7.11914 28.0156L8.37891 25.8379C8.58398 25.4961 8.95508 25.3789 9.29688 25.5742C9.62891 25.7695 9.72656 26.1699 9.53125 26.502L8.28125 28.6602Z" fill="#636156"/>
</svg>
